HIERARCHY
ROOT Hips
{
	OFFSET 0.000000 0.000000 0.000000 
	CHANNELS 6 Xposition Yposition Zposition Zrotation Yrotation Xrotation
	JOINT LeftUpLeg
	{
		OFFSET 1.363060 -1.794630 0.839290 
		CHANNELS 3 Zrotation Yrotation Xrotation
		JOINT LeftLeg
		{
			OFFSET 2.448110 -6.726130 0.000000 
			CHANNELS 3 Zrotation Yrotation Xrotation
			JOINT LeftFoot
			{
				OFFSET 2.562200 -7.039590 0.000000 
				CHANNELS 3 Zrotation Yrotation Xrotation
				JOINT LeftToeBase
				{
					OFFSET 0.157640 -0.433110 2.322550 
					CHANNELS 3 Zrotation Yrotation Xrotation
					End Site
					{
						OFFSET 0.000000 0.000000 0.000000 
					}
				}
			}
		}
	}
	JOINT RightUpLeg
	{
		OFFSET -1.305520 -1.794630 0.839290 
		CHANNELS 3 Zrotation Yrotation Xrotation
		JOINT RightLeg
		{
			OFFSET -2.542530 -6.985550 0.000000 
			CHANNELS 3 Zrotation Yrotation Xrotation
			JOINT RightFoot
			{
				OFFSET -2.568260 -7.056230 0.000000 
				CHANNELS 3 Zrotation Yrotation Xrotation
				JOINT RightToeBase
				{
					OFFSET -0.164730 -0.452590 2.363150 
					CHANNELS 3 Zrotation Yrotation Xrotation
					End Site
					{
						OFFSET 0.000000 0.000000 0.000000 
					}
				}
			}
		}
	}
	JOINT Spine
	{
		OFFSET 0.028270 2.035590 -0.193380 
		CHANNELS 3 Zrotation Yrotation Xrotation
		JOINT Spine1
		{
			OFFSET 0.056720 2.048850 -0.042750 
			CHANNELS 3 Zrotation Yrotation Xrotation
			JOINT Neck1
			{
				OFFSET -0.054170 1.746240 0.172020 
				CHANNELS 3 Zrotation Yrotation Xrotation
				JOINT Head
				{
					OFFSET 0.104070 1.761360 -0.123970 
					CHANNELS 3 Zrotation Yrotation Xrotation
					End Site
					{
						OFFSET 0.000000 0.000000 0.000000 
					}
				}
			}
			JOINT LeftArm
			{
				OFFSET 3.362410 1.200890 -0.311210 
				CHANNELS 3 Zrotation Yrotation Xrotation
				JOINT LeftForeArm
				{
					OFFSET 4.983000 -0.000000 -0.000000 
					CHANNELS 3 Zrotation Yrotation Xrotation
					JOINT LeftHand
					{
						OFFSET 3.483560 -0.000000 -0.000000 
						CHANNELS 3 Zrotation Yrotation Xrotation
						JOINT LeftHandIndex1
						{
							OFFSET 0.715260 -0.000000 -0.000000 
							CHANNELS 3 Zrotation Yrotation Xrotation
							End Site
							{
								OFFSET 0.000000 0.000000 0.000000 
							}
						}
					}
				}
			}
			JOINT RightArm
			{
				OFFSET -3.136600 1.374050 -0.404650 
				CHANNELS 3 Zrotation Yrotation Xrotation
				JOINT RightForeArm
				{
					OFFSET -5.241900 -0.000000 -0.000000 
					CHANNELS 3 Zrotation Yrotation Xrotation
					JOINT RightHand
					{
						OFFSET -3.444170 -0.000000 -0.000000 
						CHANNELS 3 Zrotation Yrotation Xrotation
						JOINT RightHandIndex1
						{
							OFFSET -0.622530 -0.000000 -0.000000 
							CHANNELS 3 Zrotation Yrotation Xrotation
							End Site
							{
								OFFSET 0.000000 0.000000 0.000000 
							}
						}
					}
				}
			}
		}
	}
}
MOTION
Frames: 15
Frame Time: 0.041667
-37.949567 17.418282 -6.595120 -171.040337 -83.895085 165.396302 -23.154407 8.167482 3.228838 1.169362 6.651054 19.828738 0.001139 2.822736 -9.905600 0.083800 -1.867400 -5.139300 26.892309 10.124755 0.213595 -2.723425 -10.860904 31.756678 0.067362 -7.371170 -19.646931 -0.031000 -1.135900 3.122800 1.278349 -1.447700 -0.865799 -1.701992 -0.808610 3.043277 6.606308 0.367675 4.554888 -0.056900 0.270300 1.745500 -79.505035 1.703366 26.326697 9.134821 -19.108271 -2.280171 -1.028534 -0.770599 -16.068935 -7.125000 0.000000 0.000000 78.356689 -6.179974 26.363071 -12.937727 24.333458 -3.445339 0.823086 -0.078011 0.505812 7.125000 0.000000 0.000000 
-37.954698 17.427723 -6.604766 -171.694003 -83.887082 166.051238 -23.215502 8.234818 3.250840 1.164966 6.641023 19.793122 -0.032449 2.973564 -9.769605 0.087000 -1.902400 -5.236000 26.809720 9.977054 0.286341 -2.696147 -10.813250 31.611796 0.048628 -7.249870 -19.595900 -0.030800 -1.132000 3.112100 1.265638 -1.427443 -0.811849 -1.751048 -0.796522 3.298857 6.570631 0.384060 4.488511 -0.072100 0.272200 1.710200 -79.446389 1.431828 26.199263 9.067519 -19.014783 -2.260232 -1.031798 -0.768317 -15.953500 -7.125000 0.000000 0.000000 78.305068 -5.878463 26.589575 -13.007899 24.421120 -3.471008 0.825355 -0.076552 0.419129 7.125000 0.000000 0.000000 
-37.955416 17.437472 -6.616053 -171.962661 -83.907173 166.363999 -23.230975 8.243246 3.190940 1.163462 6.636370 19.774273 -0.062734 3.109891 -9.647455 0.088200 -1.915200 -5.271400 26.772105 9.806221 0.333733 -2.670112 -10.767518 31.474053 0.010820 -7.045854 -19.569693 -0.038500 -1.266700 3.482900 1.256133 -1.412033 -0.814556 -1.800515 -0.788053 3.323191 6.506595 0.375954 4.529006 -0.113500 0.269700 1.771100 -79.412559 1.375727 26.072959 9.070473 -19.013817 -2.268914 -1.019899 -0.826146 -15.846039 -7.125000 0.000000 0.000000 78.270262 -5.707436 26.873814 -13.083127 24.502739 -3.494910 0.826189 -0.080041 0.237701 7.125000 0.000000 0.000000 
-37.960957 17.446707 -6.629907 -171.929294 -83.909646 166.344185 -23.185012 8.313670 3.170146 1.161990 6.624931 19.743644 -0.096281 3.262590 -9.519277 0.100900 -2.048600 -5.639900 26.806353 9.722730 0.411290 -2.641398 -10.718557 31.325222 0.000051 -6.983150 -19.555675 -0.042100 -1.323900 3.640400 1.256340 -1.430238 -0.838193 -1.804602 -0.795463 3.217397 6.510239 0.453111 4.524318 -0.107200 0.306800 1.717500 -79.374360 1.478898 26.008009 9.032393 -18.972806 -2.257164 -1.024020 -0.812908 -15.873111 -7.125000 0.000000 0.000000 78.244622 -5.741022 27.170695 -13.156820 24.590552 -3.517702 0.826813 -0.073528 0.143118 7.125000 0.000000 0.000000 
-37.965062 17.456251 -6.642734 -172.171143 -83.915786 166.612887 -23.187591 8.358302 3.143710 1.159275 6.614071 19.709950 -0.128705 3.414731 -9.408596 0.107000 -2.108700 -5.806200 26.792622 9.605987 0.478577 -2.616151 -10.674417 31.192421 -0.027807 -6.837357 -19.546621 -0.048100 -1.415200 3.892000 1.251925 -1.427205 -0.841185 -1.818682 -0.793095 3.228956 6.488228 0.480023 4.542589 -0.118000 0.320600 1.722200 -79.341128 1.454464 25.905367 9.002084 -18.934491 -2.249511 -1.025495 -0.812887 -15.817851 -7.125000 0.000000 0.000000 78.206520 -5.643184 27.425722 -13.231238 24.675840 -3.541970 0.827439 -0.071527 0.032146 7.125000 0.000000 0.000000 
-37.968962 17.465589 -6.655869 -172.395501 -83.921210 166.871233 -23.192833 8.392576 3.119783 1.154623 6.597438 19.659362 -0.163406 3.583513 -9.311665 0.112300 -2.160300 -5.948900 26.781668 9.500704 0.546454 -2.587681 -10.624937 31.042296 -0.051275 -6.707937 -19.527640 -0.054700 -1.509600 4.152100 1.248934 -1.423099 -0.847292 -1.823410 -0.790867 3.234492 6.470315 0.502462 4.577698 -0.126300 0.333400 1.738900 -79.312938 1.436524 25.807272 8.973899 -18.898920 -2.241570 -1.028164 -0.805873 -15.763920 -7.125000 0.000000 0.000000 78.167100 -5.555169 27.659806 -13.307816 24.762552 -3.567245 0.827498 -0.069813 -0.069832 7.125000 0.000000 0.000000 
-37.973066 17.474414 -6.669004 -172.641991 -83.924579 167.156508 -23.206965 8.416350 3.104552 1.148623 6.576203 19.595475 -0.200117 3.769489 -9.236081 0.116500 -2.200900 -6.061200 26.769559 9.416059 0.603194 -2.560643 -10.578336 30.900001 -0.070271 -6.598756 -19.504278 -0.060900 -1.592700 4.381200 1.246384 -1.416357 -0.854415 -1.822931 -0.787561 3.240656 6.453369 0.519586 4.624327 -0.134200 0.344600 1.763100 -79.285253 1.419260 25.725089 8.946668 -18.864554 -2.232934 -1.031531 -0.793153 -15.723607 -7.125000 0.000000 0.000000 78.130242 -5.475273 27.866295 -13.386295 24.851308 -3.593827 0.827628 -0.067894 -0.163414 7.125000 0.000000 0.000000 
-37.977068 17.482521 -6.682139 -172.904713 -83.926549 167.460653 -23.230934 8.424914 3.098717 1.141455 6.551086 19.520653 -0.237790 3.968973 -9.189229 0.118300 -2.217300 -6.106500 26.754600 9.344466 0.653344 -2.532647 -10.530401 30.752001 -0.092020 -6.466370 -19.463348 -0.067000 -1.670600 4.596100 1.243876 -1.406382 -0.862821 -1.820636 -0.782749 3.244843 6.436000 0.532728 4.680946 -0.142600 0.354400 1.794400 -79.260262 1.409081 25.655376 8.925344 -18.837904 -2.226022 -1.033851 -0.781936 -15.684815 -7.125000 0.000000 0.000000 78.097154 -5.405117 28.044860 -13.467399 24.942703 -3.622025 0.827439 -0.066989 -0.256613 7.125000 0.000000 0.000000 
-37.981276 17.489601 -6.694966 -173.167647 -83.927929 167.761587 -23.260655 8.426725 3.110295 1.132889 6.520997 19.432055 -0.276379 4.179625 -9.169950 0.118200 -2.216200 -6.103500 26.739088 9.285248 0.700691 -2.504050 -10.481573 30.600869 -0.113548 -6.322995 -19.400742 -0.072900 -1.741300 4.791100 1.241367 -1.395420 -0.872373 -1.819145 -0.777548 3.243112 6.418613 0.547241 4.743356 -0.151600 0.365300 1.828300 -79.232532 1.409700 25.615552 8.912842 -18.823331 -2.221917 -1.034552 -0.775216 -15.671121 -7.125000 0.000000 0.000000 78.069068 -5.344543 28.198777 -13.547231 25.032567 -3.650352 0.827506 -0.066245 -0.346842 7.125000 0.000000 0.000000 
-37.985996 17.495348 -6.707383 -173.458404 -83.929247 168.082738 -23.298930 8.426311 3.147912 1.122443 6.484751 19.326845 -0.314786 4.396468 -9.180132 0.116100 -2.197200 -6.051000 26.717675 9.227837 0.746209 -2.476499 -10.434096 30.453820 -0.137424 -6.159081 -19.321692 -0.078300 -1.805300 4.967900 1.238588 -1.384973 -0.879886 -1.818620 -0.772320 3.249719 6.403783 0.562594 4.807891 -0.159000 0.376800 1.861900 -79.202895 1.415573 25.602180 8.909147 -18.820738 -2.220601 -1.033592 -0.773789 -15.679903 -7.125000 0.000000 0.000000 78.043392 -5.284664 28.334073 -13.623064 25.118535 -3.677741 0.827860 -0.065243 -0.439032 7.125000 0.000000 0.000000 
-37.990819 17.500068 -6.719287 -173.756274 -83.931915 168.406738 -23.341544 8.426430 3.206175 1.109848 6.441913 19.203477 -0.352494 4.614130 -9.214514 0.112500 -2.162100 -5.953900 26.692712 9.164420 0.791020 -2.450973 -10.389328 30.316189 -0.165290 -5.973162 -19.239156 -0.084300 -1.872700 5.154100 1.235844 -1.376051 -0.887327 -1.818857 -0.767889 3.253934 6.391351 0.581403 4.872289 -0.165100 0.390100 1.893200 -79.174765 1.436031 25.604176 8.918729 -18.836288 -2.224404 -1.029933 -0.783517 -15.699878 -7.125000 0.000000 0.000000 78.020293 -5.230725 28.453266 -13.695089 25.200250 -3.704121 0.828229 -0.064200 -0.530112 7.125000 0.000000 0.000000 
-37.995540 17.503763 -6.730677 -174.044962 -83.933655 168.719864 -23.386156 8.424560 3.282466 1.094565 6.391147 19.058118 -0.388928 4.830409 -9.273741 0.106700 -2.106100 -5.798900 26.667156 9.102275 0.827482 -2.428266 -10.349408 30.193526 -0.190516 -5.804036 -19.163475 -0.090200 -1.937300 5.332300 1.233377 -1.367501 -0.893229 -1.819897 -0.763513 3.267315 6.381420 0.595146 4.939100 -0.169800 0.401100 1.928900 -79.146755 1.455658 25.621647 8.941851 -18.869233 -2.233205 -1.025377 -0.798590 -15.730739 -7.125000 0.000000 0.000000 77.996482 -5.167327 28.558178 -13.760937 25.274695 -3.728512 0.828941 -0.063192 -0.620904 7.125000 0.000000 0.000000 
-38.000260 17.506636 -6.742170 -174.176131 -83.925538 168.877399 -23.409471 8.423797 3.374996 1.077024 6.332018 18.890520 -0.423343 5.040712 -9.356874 0.099300 -2.032000 -5.594200 26.666752 9.052325 0.857865 -2.408389 -10.315178 30.087047 -0.210240 -5.671477 -19.104732 -0.096000 -1.998000 5.500200 1.233582 -1.357019 -0.895611 -1.817361 -0.758269 3.299211 6.369333 0.607826 5.005188 -0.175600 0.411500 1.966800 -79.121455 1.467350 25.651368 8.975680 -18.916415 -2.245973 -1.020103 -0.817956 -15.771159 -7.125000 0.000000 0.000000 77.967221 -5.087711 28.655477 -13.819173 25.340330 -3.750342 0.830049 -0.061785 -0.713435 7.125000 0.000000 0.000000 
-38.004365 17.508791 -6.752945 -174.226368 -83.918108 168.963796 -23.428650 8.407613 3.477932 1.056783 6.264396 18.699196 -0.457271 5.251792 -9.460139 0.091300 -1.948900 -5.364300 26.666653 8.990385 0.861771 -2.391384 -10.286346 29.995902 -0.223769 -5.569403 -19.044817 -0.100900 -2.048200 5.638800 1.235402 -1.348866 -0.898458 -1.815066 -0.754024 3.331624 6.354803 0.619960 5.069309 -0.183000 0.421400 2.004600 -79.103295 1.481835 25.687177 9.020004 -18.976620 -2.262185 -1.014233 -0.838354 -15.810021 -7.125000 0.000000 0.000000 77.934235 -5.006773 28.739005 -13.875319 25.403313 -3.771577 0.830632 -0.060676 -0.795370 7.125000 0.000000 0.000000 
-38.008059 17.510228 -6.763207 -174.122685 -83.910403 168.903926 -23.432198 8.372995 3.593764 1.034178 6.187805 18.483911 -0.490888 5.464552 -9.579475 0.083900 -1.868800 -5.143300 26.680804 8.925367 0.846420 -2.376313 -10.262038 29.916672 -0.229609 -5.509031 -18.989185 -0.104800 -2.087700 5.748200 1.239766 -1.344986 -0.902401 -1.812367 -0.751807 3.361196 6.337330 0.633229 5.130490 -0.192400 0.431400 2.039000 -79.088448 1.504212 25.732437 9.072980 -19.047636 -2.280227 -1.009572 -0.851527 -15.861729 -7.125000 0.000000 0.000000 77.897124 -4.931305 28.820983 -13.929324 25.464077 -3.791989 0.831240 -0.058784 -0.869679 7.125000 0.000000 0.000000 
